<svg width="192" height="192" viewBox="0 0 192 192" fill="none" xmlns="http://www.w3.org/2000/svg">
  <defs>
    <linearGradient id="sheetCardsGradient" x1="28" y1="20" x2="165" y2="172" gradientUnits="userSpaceOnUse">
      <stop stop-color="#F6C16D"/>
      <stop offset="1" stop-color="#296F45"/>
    </linearGradient>
    <linearGradient id="sheetCardsPaper" x1="55" y1="40" x2="143" y2="158" gradientUnits="userSpaceOnUse">
      <stop stop-color="#FFFFFF"/>
      <stop offset="1" stop-color="#ECF6EA"/>
    </linearGradient>
  </defs>
  <rect x="20" y="20" width="152" height="152" rx="34" fill="url(#sheetCardsGradient)"/>
  <rect x="50" y="36" width="92" height="120" rx="14" fill="url(#sheetCardsPaper)"/>
  <rect x="63" y="56" width="66" height="10" rx="5" fill="#1D5233" fill-opacity="0.15"/>
  <rect x="63" y="74" width="54" height="8" rx="4" fill="#1D5233" fill-opacity="0.2"/>
  <rect x="63" y="89" width="46" height="8" rx="4" fill="#1D5233" fill-opacity="0.2"/>
  <rect x="63" y="104" width="58" height="8" rx="4" fill="#1D5233" fill-opacity="0.2"/>
  <rect x="58" y="120" width="76" height="28" rx="10" fill="#1D5233"/>
  <path d="M80.8 139.2C77.4667 139.2 74.9067 138.293 73.12 136.48C71.3333 134.667 70.44 132.173 70.44 129C70.44 125.773 71.3333 123.253 73.12 121.44C74.9067 119.627 77.48 118.72 80.84 118.72C83.8533 118.72 86.2267 119.4 87.96 120.76L85.88 124.6C84.36 123.507 82.68 122.96 80.84 122.96C79 122.96 77.5867 123.48 76.6 124.52C75.6133 125.533 75.12 127.027 75.12 129C75.12 130.92 75.6 132.387 76.56 133.4C77.52 134.387 78.88 134.88 80.64 134.88C82.6133 134.88 84.3733 134.267 85.92 133.04L88.16 136.92C86.3467 138.44 83.8933 139.2 80.8 139.2Z" fill="#F6EFE5"/>
  <path d="M104.78 139.2C102.406 139.2 100.5 138.587 99.06 137.36C97.6467 136.107 96.94 134.333 96.94 132.04V119.16H101.58V131.12C101.58 133.333 102.62 134.44 104.7 134.44C106.06 134.44 107.153 133.92 107.98 132.88C108.833 131.813 109.26 130.32 109.26 128.4V119.16H113.9V138.8H109.46V136.28C108.02 138.227 106.46 139.2 104.78 139.2Z" fill="#F6EFE5"/>
</svg>
