<svg width="192" height="192" viewBox="0 0 192 192" fill="none" xmlns="http://www.w3.org/2000/svg">
  <defs>
    <linearGradient id="sheetCardsGradient" x1="24" y1="24" x2="168" y2="168" gradientUnits="userSpaceOnUse">
      <stop stop-color="#F6C16D" />
      <stop offset="1" stop-color="#296F45" />
    </linearGradient>
    <linearGradient id="sheetCardsPaper" x1="72" y1="36" x2="146" y2="164" gradientUnits="userSpaceOnUse">
      <stop stop-color="#FFFFFF" />
      <stop offset="1" stop-color="#ECF6EA" />
    </linearGradient>
    <filter id="cardShadow" x="34" y="20" width="130" height="154" filterUnits="userSpaceOnUse" color-interpolation-filters="sRGB">
      <feOffset dy="3" />
      <feGaussianBlur stdDeviation="4" />
      <feColorMatrix type="matrix" values="0 0 0 0 0.113725 0 0 0 0 0.321569 0 0 0 0 0.2 0 0 0 0.28 0" />
      <feBlend mode="normal" in2="BackgroundImageFix" result="effect1_dropShadow_1_1" />
      <feBlend mode="normal" in="SourceGraphic" in2="effect1_dropShadow_1_1" result="shape" />
    </filter>
  </defs>

  <rect x="20" y="20" width="152" height="152" rx="34" fill="url(#sheetCardsGradient)" />

  <g filter="url(#cardShadow)">
    <rect x="46" y="56" width="92" height="112" rx="15" transform="rotate(-12 46 56)" fill="#18452C" fill-opacity="0.45" />
    <rect x="64" y="34" width="88" height="118" rx="15" transform="rotate(10 64 34)" fill="url(#sheetCardsPaper)" />
    <path d="M135.1 54.4L145.5 70.2L128.9 67.3L135.1 54.4Z" fill="#DCEBD9" />
    <rect x="80" y="67" width="56" height="8" rx="4" transform="rotate(10 80 67)" fill="#1D5233" fill-opacity="0.16" />
    <rect x="80" y="82" width="45" height="7" rx="3.5" transform="rotate(10 80 82)" fill="#1D5233" fill-opacity="0.2" />
    <rect x="80" y="95" width="52" height="7" rx="3.5" transform="rotate(10 80 95)" fill="#1D5233" fill-opacity="0.2" />
    <rect x="79" y="112" width="66" height="30" rx="10" transform="rotate(10 79 112)" fill="#1D5233" />
    <text x="112.5" y="132.5" transform="rotate(10 112.5 132.5)" text-anchor="middle" fill="#F6EFE5" font-family="Manrope, Segoe UI, sans-serif" font-size="24" font-weight="800" letter-spacing="1.5">SC</text>
  </g>
</svg>
